<svg width="53" height="44" viewBox="0 0 53 44" fill="none" xmlns="http://www.w3.org/2000/svg">
<path d="M3.304 33.218C4.72267 33.218 5.754 33.4747 6.398 33.988C7.05133 34.492 7.378 35.2013 7.378 36.116C7.378 36.6853 7.24267 37.194 6.972 37.642C6.71067 38.09 6.314 38.4447 5.782 38.706C5.25 38.958 4.59667 39.084 3.822 39.084C3.122 39.084 2.45467 38.972 1.82 38.748C1.19467 38.5147 0.690667 38.2067 0.308 37.824L0.798 37.026C1.12467 37.362 1.554 37.6373 2.086 37.852C2.618 38.0573 3.192 38.16 3.808 38.16C4.62 38.16 5.24533 37.978 5.684 37.614C6.132 37.25 6.356 36.7647 6.356 36.158C6.356 35.486 6.104 34.9773 5.6 34.632C5.10533 34.2867 4.26533 34.114 3.08 34.114H0.994L1.498 29.2H6.86V30.096H2.38L2.044 33.218H3.304ZM19.3638 33.946C20.0078 34.086 20.5024 34.366 20.8478 34.786C21.2024 35.1967 21.3798 35.7287 21.3798 36.382C21.3798 37.222 21.0671 37.8707 20.4418 38.328C19.8258 38.776 18.9111 39 17.6978 39H13.1898V29.2H17.4178C18.5098 29.2 19.3544 29.4193 19.9518 29.858C20.5584 30.2967 20.8618 30.9173 20.8618 31.72C20.8618 32.2613 20.7264 32.7233 20.4558 33.106C20.1944 33.4793 19.8304 33.7593 19.3638 33.946ZM14.2258 30.054V33.61H17.3478C18.1411 33.61 18.7524 33.4607 19.1818 33.162C19.6111 32.854 19.8257 32.4107 19.8257 31.832C19.8257 31.2533 19.6111 30.8147 19.1818 30.516C18.7524 30.208 18.1411 30.054 17.3478 30.054H14.2258ZM17.6838 38.146C18.5611 38.146 19.2238 37.9967 19.6718 37.698C20.1198 37.3993 20.3438 36.9327 20.3438 36.298C20.3438 35.0753 19.4571 34.464 17.6838 34.464H14.2258V38.146H17.6838ZM26.1104 31.58C27.0718 31.58 27.8091 31.8227 28.3224 32.308C28.8358 32.784 29.0924 33.4933 29.0924 34.436V39H28.1404V37.852C27.9164 38.2347 27.5851 38.5333 27.1464 38.748C26.7171 38.9627 26.2038 39.07 25.6064 39.07C24.7851 39.07 24.1318 38.874 23.6464 38.482C23.1611 38.09 22.9184 37.572 22.9184 36.928C22.9184 36.3027 23.1424 35.7987 23.5904 35.416C24.0478 35.0333 24.7711 34.842 25.7604 34.842H28.0984V34.394C28.0984 33.7593 27.9211 33.2787 27.5664 32.952C27.2118 32.616 26.6938 32.448 26.0124 32.448C25.5458 32.448 25.0978 32.5273 24.6684 32.686C24.2391 32.8353 23.8704 33.0453 23.5624 33.316L23.1144 32.574C23.4878 32.2567 23.9358 32.014 24.4584 31.846C24.9811 31.6687 25.5318 31.58 26.1104 31.58ZM25.7604 38.286C26.3204 38.286 26.8011 38.16 27.2024 37.908C27.6038 37.6467 27.9024 37.2733 28.0984 36.788V35.584H25.7884C24.5284 35.584 23.8984 36.0227 23.8984 36.9C23.8984 37.3293 24.0618 37.67 24.3884 37.922C24.7151 38.1647 25.1724 38.286 25.7604 38.286ZM35.6703 38.552C35.4836 38.72 35.2503 38.8507 34.9703 38.944C34.6996 39.028 34.4149 39.07 34.1163 39.07C33.4256 39.07 32.8936 38.8833 32.5203 38.51C32.1469 38.1367 31.9603 37.6093 31.9603 36.928V32.476H30.6443V31.636H31.9603V30.026H32.9543V31.636H35.1943V32.476H32.9543V36.872C32.9543 37.3107 33.0616 37.6467 33.2763 37.88C33.5003 38.104 33.8176 38.216 34.2283 38.216C34.4336 38.216 34.6296 38.1833 34.8163 38.118C35.0123 38.0527 35.1803 37.9593 35.3203 37.838L35.6703 38.552ZM41.2318 31.58C42.1558 31.58 42.8884 31.8507 43.4298 32.392C43.9804 32.924 44.2558 33.7033 44.2558 34.73V39H43.2618V34.828C43.2618 34.0627 43.0704 33.4793 42.6878 33.078C42.3051 32.6767 41.7591 32.476 41.0498 32.476C40.2564 32.476 39.6264 32.714 39.1598 33.19C38.7024 33.6567 38.4738 34.3053 38.4738 35.136V39H37.4798V28.612H38.4738V32.924C38.7444 32.4947 39.1178 32.1633 39.5938 31.93C40.0698 31.6967 40.6158 31.58 41.2318 31.58ZM48.9284 39.07C48.331 39.07 47.757 38.986 47.2064 38.818C46.665 38.6407 46.2404 38.4213 45.9324 38.16L46.3804 37.376C46.6884 37.6187 47.0757 37.8193 47.5424 37.978C48.009 38.1273 48.4944 38.202 48.9984 38.202C49.6704 38.202 50.165 38.0993 50.4824 37.894C50.809 37.6793 50.9724 37.3807 50.9724 36.998C50.9724 36.7273 50.8837 36.5173 50.7064 36.368C50.529 36.2093 50.305 36.0927 50.0344 36.018C49.7637 35.934 49.4044 35.8547 48.9564 35.78C48.359 35.668 47.8784 35.556 47.5144 35.444C47.1504 35.3227 46.8377 35.122 46.5764 34.842C46.3244 34.562 46.1984 34.1747 46.1984 33.68C46.1984 33.064 46.455 32.56 46.9684 32.168C47.4817 31.776 48.1957 31.58 49.1104 31.58C49.5864 31.58 50.0624 31.6453 50.5384 31.776C51.0144 31.8973 51.4064 32.0607 51.7144 32.266L51.2804 33.064C50.6737 32.644 49.9504 32.434 49.1104 32.434C48.4757 32.434 47.995 32.546 47.6684 32.77C47.351 32.994 47.1924 33.288 47.1924 33.652C47.1924 33.932 47.281 34.156 47.4584 34.324C47.645 34.492 47.8737 34.618 48.1444 34.702C48.415 34.7767 48.7884 34.856 49.2644 34.94C49.8524 35.052 50.3237 35.164 50.6784 35.276C51.033 35.388 51.3364 35.5793 51.5884 35.85C51.8404 36.1207 51.9664 36.494 51.9664 36.97C51.9664 37.614 51.6957 38.1273 51.1544 38.51C50.6224 38.8833 49.8804 39.07 48.9284 39.07Z" fill="#696969"/>
<g clip-path="url(#clip0_0_6220)">
<path d="M35.7619 11.0558C35.7619 10.7426 35.508 10.4886 35.1947 10.4886H34.0595V2.75501C34.0595 1.23589 32.8236 0 31.3045 0C29.7853 0 28.5495 1.23589 28.5495 2.75501V3.78902C28.5495 4.10226 28.8034 4.35624 29.1167 4.35624C29.4299 4.35624 29.6839 4.10226 29.6839 3.78902V2.75501C29.6839 1.86141 30.4109 1.13444 31.3045 1.13444C32.1981 1.13444 32.925 1.86141 32.925 2.75501V10.4886H17.8053C17.492 10.4886 17.238 10.7426 17.238 11.0558C17.238 13.6158 18.8572 15.8044 21.125 16.6522C20.6888 17.1108 20.419 17.7397 20.419 18.4328C20.419 18.746 20.6729 19 20.9862 19C21.2994 19 21.5534 18.746 21.5534 18.4328C21.5534 17.6583 22.1444 17.0282 22.8708 17.0282C22.8975 17.0282 30.1025 17.0282 30.1292 17.0282C30.8557 17.0282 31.4467 17.6583 31.4467 18.4328C31.4467 18.746 31.7006 19 32.0139 19C32.3271 19 32.5811 18.746 32.5811 18.4328C32.5811 17.7397 32.3112 17.1108 31.875 16.6522C34.1428 15.8044 35.7619 13.6158 35.7619 11.0558ZM29.7896 15.8938H23.2104C20.7346 15.8938 18.6872 14.0245 18.4055 11.6231H34.5945C34.3128 14.0245 32.2654 15.8938 29.7896 15.8938Z" fill="#696969"/>
<path d="M29.1167 5.34033C28.8034 5.34033 28.5495 5.59431 28.5495 5.90755V6.39914C28.5495 6.71238 28.8034 6.96636 29.1167 6.96636C29.4299 6.96636 29.6839 6.71238 29.6839 6.39914V5.90755C29.6839 5.59427 29.4299 5.34033 29.1167 5.34033Z" fill="#696969"/>
<path d="M29.1167 8.06299C28.8034 8.06299 28.5495 8.31696 28.5495 8.63021V9.12179C28.5495 9.43504 28.8034 9.68901 29.1167 9.68901C29.4299 9.68901 29.6839 9.43504 29.6839 9.12179V8.63021C29.6839 8.31693 29.4299 8.06299 29.1167 8.06299Z" fill="#696969"/>
</g>
<defs>
<clipPath id="clip0_0_6220">
<rect width="19" height="19" fill="white" transform="translate(17)"/>
</clipPath>
</defs>
</svg>
