<svg width="49" height="44" viewBox="0 0 49 44" fill="none" xmlns="http://www.w3.org/2000/svg">
<path d="M9.058 36.424H7.098V39H6.09V36.424H0.56V35.696L5.754 29.2H6.874L1.862 35.528H6.118V33.26H7.098V35.528H9.058V36.424ZM20.6899 33.946C21.3339 34.086 21.8286 34.366 22.1739 34.786C22.5286 35.1967 22.7059 35.7287 22.7059 36.382C22.7059 37.222 22.3933 37.8707 21.7679 38.328C21.1519 38.776 20.2373 39 19.0239 39H14.5159V29.2H18.7439C19.8359 29.2 20.6806 29.4193 21.2779 29.858C21.8846 30.2967 22.1879 30.9173 22.1879 31.72C22.1879 32.2613 22.0526 32.7233 21.7819 33.106C21.5206 33.4793 21.1566 33.7593 20.6899 33.946ZM15.5519 30.054V33.61H18.6739C19.4673 33.61 20.0786 33.4607 20.5079 33.162C20.9373 32.854 21.1519 32.4107 21.1519 31.832C21.1519 31.2533 20.9373 30.8147 20.5079 30.516C20.0786 30.208 19.4673 30.054 18.6739 30.054H15.5519ZM19.0099 38.146C19.8873 38.146 20.5499 37.9967 20.9979 37.698C21.4459 37.3993 21.6699 36.9327 21.6699 36.298C21.6699 35.0753 20.7833 34.464 19.0099 34.464H15.5519V38.146H19.0099ZM31.2726 35.626H25.1126C25.1686 36.3913 25.4626 37.012 25.9946 37.488C26.5266 37.9547 27.1986 38.188 28.0106 38.188C28.4679 38.188 28.8879 38.1087 29.2706 37.95C29.6533 37.782 29.9846 37.5393 30.2646 37.222L30.8246 37.866C30.4979 38.258 30.0873 38.5567 29.5926 38.762C29.1073 38.9673 28.5706 39.07 27.9826 39.07C27.2266 39.07 26.5546 38.9113 25.9666 38.594C25.3879 38.2673 24.9353 37.8193 24.6086 37.25C24.2819 36.6807 24.1186 36.0367 24.1186 35.318C24.1186 34.5993 24.2726 33.9553 24.5806 33.386C24.8979 32.8167 25.3273 32.3733 25.8686 32.056C26.4193 31.7387 27.0353 31.58 27.7166 31.58C28.3979 31.58 29.0093 31.7387 29.5506 32.056C30.0919 32.3733 30.5166 32.8167 30.8246 33.386C31.1326 33.946 31.2866 34.59 31.2866 35.318L31.2726 35.626ZM27.7166 32.434C27.0073 32.434 26.4099 32.6627 25.9246 33.12C25.4486 33.568 25.1779 34.156 25.1126 34.884H30.3346C30.2693 34.156 29.9939 33.568 29.5086 33.12C29.0326 32.6627 28.4353 32.434 27.7166 32.434ZM40.0298 28.612V39H39.0778V37.544C38.7792 38.0387 38.3825 38.4167 37.8878 38.678C37.4025 38.9393 36.8518 39.07 36.2358 39.07C35.5452 39.07 34.9198 38.9113 34.3598 38.594C33.7998 38.2767 33.3612 37.8333 33.0438 37.264C32.7265 36.6947 32.5678 36.046 32.5678 35.318C32.5678 34.59 32.7265 33.9413 33.0438 33.372C33.3612 32.8027 33.7998 32.364 34.3598 32.056C34.9198 31.7387 35.5452 31.58 36.2358 31.58C36.8332 31.58 37.3698 31.706 37.8458 31.958C38.3312 32.2007 38.7278 32.56 39.0358 33.036V28.612H40.0298ZM36.3198 38.188C36.8332 38.188 37.2952 38.0713 37.7058 37.838C38.1258 37.5953 38.4525 37.2547 38.6858 36.816C38.9285 36.3773 39.0498 35.878 39.0498 35.318C39.0498 34.758 38.9285 34.2587 38.6858 33.82C38.4525 33.3813 38.1258 33.0453 37.7058 32.812C37.2952 32.5693 36.8332 32.448 36.3198 32.448C35.7972 32.448 35.3258 32.5693 34.9058 32.812C34.4952 33.0453 34.1685 33.3813 33.9258 33.82C33.6925 34.2587 33.5758 34.758 33.5758 35.318C33.5758 35.878 33.6925 36.3773 33.9258 36.816C34.1685 37.2547 34.4952 37.5953 34.9058 37.838C35.3258 38.0713 35.7972 38.188 36.3198 38.188ZM44.7721 39.07C44.1748 39.07 43.6008 38.986 43.0501 38.818C42.5088 38.6407 42.0841 38.4213 41.7761 38.16L42.2241 37.376C42.5321 37.6187 42.9194 37.8193 43.3861 37.978C43.8528 38.1273 44.3381 38.202 44.8421 38.202C45.5141 38.202 46.0088 38.0993 46.3261 37.894C46.6528 37.6793 46.8161 37.3807 46.8161 36.998C46.8161 36.7273 46.7274 36.5173 46.5501 36.368C46.3728 36.2093 46.1488 36.0927 45.8781 36.018C45.6074 35.934 45.2481 35.8547 44.8001 35.78C44.2028 35.668 43.7221 35.556 43.3581 35.444C42.9941 35.3227 42.6814 35.122 42.4201 34.842C42.1681 34.562 42.0421 34.1747 42.0421 33.68C42.0421 33.064 42.2988 32.56 42.8121 32.168C43.3254 31.776 44.0394 31.58 44.9541 31.58C45.4301 31.58 45.9061 31.6453 46.3821 31.776C46.8581 31.8973 47.2501 32.0607 47.5581 32.266L47.1241 33.064C46.5174 32.644 45.7941 32.434 44.9541 32.434C44.3194 32.434 43.8388 32.546 43.5121 32.77C43.1948 32.994 43.0361 33.288 43.0361 33.652C43.0361 33.932 43.1248 34.156 43.3021 34.324C43.4888 34.492 43.7174 34.618 43.9881 34.702C44.2588 34.7767 44.6321 34.856 45.1081 34.94C45.6961 35.052 46.1674 35.164 46.5221 35.276C46.8768 35.388 47.1801 35.5793 47.4321 35.85C47.6841 36.1207 47.8101 36.494 47.8101 36.97C47.8101 37.614 47.5394 38.1273 46.9981 38.51C46.4661 38.8833 45.7241 39.07 44.7721 39.07Z" fill="#696969"/>
<path d="M32.2372 8.62454V4.3934C32.2372 3.46058 31.4782 2.70166 30.5454 2.70166H18.4546C17.5218 2.70166 16.7628 3.46058 16.7628 4.3934V8.62454C15.7477 8.90557 15 9.83701 15 10.9403V14.1552C15 14.4667 15.2526 14.7193 15.5641 14.7193H16.7628V15.734C16.7628 16.0455 17.0154 16.2981 17.3269 16.2981C17.6384 16.2981 17.891 16.0455 17.891 15.734V14.7193H31.109V15.734C31.109 16.0455 31.3616 16.2981 31.6731 16.2981C31.9846 16.2981 32.2372 16.0455 32.2372 15.734V14.7193H33.4359C33.7474 14.7193 34 14.4667 34 14.1552V10.9403C34 9.83701 33.2523 8.90557 32.2372 8.62454ZM17.891 4.3934C17.891 4.08265 18.1438 3.82979 18.4546 3.82979H30.5455C30.8562 3.82979 31.1091 4.08265 31.1091 4.3934V8.53726H29.7874V7.40501C29.7874 6.42046 28.9864 5.6195 28.0019 5.6195H25.7215C25.2493 5.6195 24.8197 5.80404 24.5 6.10444C24.1804 5.80408 23.7508 5.6195 23.2786 5.6195H20.9982C20.0136 5.6195 19.2127 6.4205 19.2127 7.40501V8.53726H17.891V4.3934ZM28.6593 7.40501V8.53726H25.0641V7.40501C25.0641 7.04249 25.359 6.74762 25.7215 6.74762H28.0019C28.3644 6.74762 28.6593 7.04253 28.6593 7.40501ZM23.9359 7.40501V8.53726H20.3407V7.40501C20.3407 7.04249 20.6356 6.74762 20.9981 6.74762H23.2785C23.641 6.74762 23.9359 7.04253 23.9359 7.40501ZM32.8719 13.5912H16.1281V10.9403C16.1281 10.2373 16.7001 9.66538 17.4031 9.66538H31.5969C32.2999 9.66538 32.8719 10.2373 32.8719 10.9403V13.5912Z" fill="#696969"/>
</svg>
