<svg width="19" height="19" viewBox="0 0 19 19" fill="none" xmlns="http://www.w3.org/2000/svg">
<path d="M18.2733 7.61217L17.8592 7.17371L16.4058 3.25598C16.1581 2.59422 15.5248 2.15576 14.8184 2.1517H4.43739C3.73098 2.1517 3.09765 2.59422 2.85 3.25598L1.41688 7.12499L0.820086 7.67713C0.300427 8.11965 0 8.76922 0 9.45128V15.1594C0.00405983 16.0932 0.763248 16.8483 1.69701 16.8483H2.7688C3.70256 16.8483 4.46175 16.0932 4.46581 15.1594V14.3312H14.5342V15.1594C14.5382 16.0932 15.2974 16.8483 16.2312 16.8483H17.303C18.2368 16.8483 18.9959 16.0932 19 15.1594V9.30106C18.9959 8.66367 18.7361 8.05469 18.2733 7.61217ZM3.61325 3.53204C3.74316 3.18696 4.07201 2.96367 4.43739 2.96367H14.8224C15.1878 2.96367 15.5167 3.19102 15.6466 3.53204L16.9132 6.9423H15.9673C15.744 5.41987 14.3271 4.36837 12.8047 4.59572C11.5908 4.77435 10.6368 5.72841 10.4581 6.9423H2.34658L3.61325 3.53204ZM15.1391 6.9423H11.2782C11.5015 5.87457 12.5489 5.19251 13.6167 5.41581C14.3799 5.5782 14.9767 6.17499 15.1391 6.9423ZM3.65385 15.1594C3.64979 15.6466 3.25598 16.0363 2.7688 16.0363H1.69701C1.20983 16.0363 0.816026 15.6466 0.811966 15.1594V14.0957C1.05556 14.2541 1.37628 14.3312 1.69701 14.3312H3.65385V15.1594ZM18.188 15.1594C18.184 15.6466 17.7902 16.0363 17.303 16.0363H16.2312C15.744 16.0363 15.3502 15.6425 15.3462 15.1594V14.3312H17.303C17.6237 14.3312 17.9444 14.2541 18.188 14.0957V15.1594ZM17.303 13.5192H1.69701C1.21389 13.5233 0.816026 13.1376 0.811966 12.6504V9.45128C0.811966 9.00469 1.0109 8.57841 1.35192 8.29016C1.35598 8.2861 1.3641 8.27798 1.36816 8.27392L1.9203 7.75427H17.2949L17.6846 8.17243C17.6887 8.18055 17.7009 8.18461 17.7049 8.19273C18.0094 8.48098 18.184 8.8829 18.184 9.30106V12.6504H18.188C18.184 13.1335 17.7861 13.5233 17.303 13.5192Z" fill="white"/>
<path d="M5.35894 9.3782H2.31406C2.09077 9.3782 1.90808 9.5609 1.90808 9.78419V11.8953C1.90808 12.1186 2.09077 12.3013 2.31406 12.3013H5.35894C5.58223 12.3013 5.76492 12.1186 5.76492 11.8953V9.78419C5.76492 9.5609 5.58223 9.3782 5.35894 9.3782ZM4.95295 11.4893H2.72005V10.1902H4.95295V11.4893Z" fill="white"/>
<path d="M16.686 9.3782H13.6411C13.4178 9.3782 13.2351 9.5609 13.2351 9.78419V11.8953C13.2351 12.1186 13.4178 12.3013 13.6411 12.3013H16.686C16.9093 12.3013 17.0919 12.1186 17.0919 11.8953V9.78419C17.0919 9.5609 16.9093 9.3782 16.686 9.3782ZM16.28 11.4893H14.0471V10.1902H16.28V11.4893Z" fill="white"/>
<path d="M11.461 11.0833H7.53916C7.31587 11.0833 7.13318 11.266 7.13318 11.4893C7.13318 11.7126 7.31587 11.8953 7.53916 11.8953H11.461C11.6842 11.8953 11.8669 11.7126 11.8669 11.4893C11.8669 11.266 11.6842 11.0833 11.461 11.0833Z" fill="white"/>
<path d="M11.461 9.82477H7.53916C7.31587 9.82477 7.13318 10.0075 7.13318 10.2307C7.13318 10.454 7.31587 10.6367 7.53916 10.6367H11.461C11.6842 10.6367 11.8669 10.454 11.8669 10.2307C11.8669 10.0075 11.6842 9.82477 11.461 9.82477Z" fill="white"/>
</svg>
